<svg width="62" height="65" viewBox="0 0 62 65" fill="none" xmlns="http://www.w3.org/2000/svg">
<rect width="62" height="65" rx="20" fill="#69B09C"/>
<path d="M48.0365 31.6929C48.0165 31.5125 47.9964 31.322 47.9663 31.1415C47.9162 30.7405 47.8761 30.3294 47.816 29.9184C47.4049 27.0109 46.3321 24.344 44.6478 22.008C43.2041 19.9928 41.3694 18.3586 39.2138 17.1555C37.2588 16.0627 35.1033 15.381 32.7973 15.1203C32.1356 15.0401 31.4539 15 30.7922 15C29.6192 15 28.4562 15.1203 27.2932 15.3609V15.3509L27.1228 15.401C26.8521 15.4612 26.5914 15.5213 26.3207 15.5915C25.9798 15.6817 25.6289 15.792 25.288 15.9023C24.9772 15.9926 24.7166 16.0728 24.4659 16.163C21.7489 17.1355 19.3828 18.7697 17.4278 21.0255C15.4728 23.2713 14.1494 25.8679 13.4777 28.7253C13.0064 30.7405 12.8861 32.7557 13.1067 34.7207C13.3373 36.7259 13.8486 38.6007 14.6306 40.285C15.4828 42.1097 16.6458 43.7339 18.0795 45.1074C19.6836 46.6414 21.5685 47.8344 23.8443 48.7568C24.8369 49.1578 25.8094 49.3483 26.7117 49.4887C27.1829 49.5889 27.6742 49.6691 28.1554 49.7293C28.3258 49.7493 28.4862 49.7694 28.6567 49.7895C29.178 49.8797 29.8397 49.9198 30.6318 49.9198C30.9526 49.9198 31.2634 49.9098 31.5541 49.8997L31.3135 50L32.3562 49.8596C32.7973 49.8296 33.1482 49.7794 33.3287 49.7494L33.3788 49.7393C33.4089 49.7293 33.429 49.7193 33.449 49.7093C34.7724 49.5188 36.0457 49.208 37.2287 48.7668C38.8028 48.1753 40.2665 47.3833 41.5599 46.3907C43.1038 45.2077 44.4172 43.774 45.4398 42.1097C46.4625 40.4655 47.1643 38.721 47.5352 36.9063C47.6555 36.3048 47.7458 35.6932 47.826 35.0917C47.8661 34.8109 47.9062 34.5402 47.9463 34.2595C47.9563 34.2094 47.9663 34.1492 47.9764 34.0991L47.9964 34.0089L48.0064 31.7531L48.0365 31.6929ZM34.2811 20.3538V20.0831V20.3538C35.5845 20.3538 36.6673 21.4466 36.6573 22.7299C36.6472 24.0132 35.5644 25.106 34.2811 25.106C32.9978 25.106 31.9151 24.0132 31.9151 22.7299C31.9251 21.4466 33.0079 20.3538 34.2811 20.3538ZM36.9179 46.1701C36.0156 47.5437 34.8125 48.5463 33.3588 49.1578C33.038 49.1979 32.7071 49.238 32.3762 49.2681C31.2133 49.3684 30.0102 49.3583 28.777 49.228C28.3459 49.1478 27.9248 49.0876 27.5137 49.0275C27.2932 48.9974 27.0726 48.9673 26.852 48.9272C25.5888 48.6666 24.3657 48.2655 23.2127 47.7442C21.9494 47.1727 20.7764 46.4509 19.7237 45.6087C18.7612 44.8367 17.899 43.9745 17.1571 43.0321C16.2648 41.8992 15.5229 40.656 14.9615 39.3225C14.4401 38.0693 14.0892 36.8763 13.8887 35.6531C13.8185 35.1919 13.7584 34.7107 13.6982 34.2395C13.6681 34.0289 13.6481 33.8184 13.618 33.6078V31.6227C13.618 31.6127 13.618 31.6127 13.628 31.6027C13.6381 31.5526 13.6581 31.4924 13.6581 31.4222C13.7684 30.0587 14.0291 28.7253 14.4301 27.4821C14.9514 25.8679 15.7034 24.344 16.6859 22.9504C17.8689 21.2661 19.3427 19.8023 21.0572 18.6093C22.4407 17.6468 23.9245 16.9049 25.4785 16.3836C25.7392 16.3033 26.0099 16.2332 26.2806 16.163C26.4109 16.1229 26.5513 16.0928 26.6816 16.0527C26.6415 16.3435 26.6114 16.6242 26.5713 16.9049C26.451 17.8072 26.3407 18.6694 26.2505 19.5316C26.0801 21.0255 25.9397 22.8101 26.1502 24.6348C26.3307 26.2188 26.7618 27.5322 27.4536 28.6651C28.1153 29.7479 28.9374 30.6703 29.9099 31.3922C30.8824 32.124 31.895 32.8359 32.9277 33.4875C33.2585 33.6981 33.6094 33.8485 33.9603 33.9989C34.2009 34.0991 34.4315 34.1994 34.6521 34.3197C36.0958 35.0816 37.1385 35.994 37.8403 37.1169C38.4719 38.1295 38.7727 39.2824 38.7326 40.5357C38.6424 42.5809 38.0408 44.4658 36.9179 46.1701Z" fill="#263435"/>
<path d="M27.2727 37.1269H27.2326C25.6285 37.1269 24.3753 38.35 24.3251 39.9842C24.285 41.5683 25.5683 42.8917 27.1925 42.9318C27.2126 42.9318 27.2426 42.9318 27.2727 42.9318C28.8267 42.9318 30.11 41.6385 30.1401 40.0444C30.1501 39.2824 29.8594 38.5505 29.318 37.9991C28.7766 37.4477 28.0547 37.1369 27.2727 37.1269Z" fill="#263435"/>
</svg>
